# Blender v2.78 (sub 0) OBJ File: ''
# www.blender.org
mtllib ddd.mtl
o Icosphere
v 0.260929 -0.789259 0.081498
v -0.426525 -0.389381 -0.606300
v 0.579350 -0.246152 -0.567526
v 1.028702 -0.084457 0.220595
v 0.289096 -0.164196 0.804744
v -0.637342 -0.362958 0.423460
v -0.083616 0.562577 -0.892293
v 0.586166 0.441882 -0.268369
v 0.415072 0.487190 0.475274
v -0.424729 0.605331 0.773910
v -0.850286 0.472526 -0.178371
v -0.150378 1.074920 -0.061839
v 0.435956 -0.565658 -0.321797
v -0.112995 -0.726853 -0.312175
v 0.088152 -0.390642 -0.790154
v -0.640984 -0.476278 -0.111177
v -0.236909 -0.711322 0.293099
v 0.742363 -0.547624 0.173859
v 0.892632 -0.157132 -0.246173
v 0.264218 -0.536527 0.537223
v 0.701658 -0.155048 0.584103
v -0.236264 -0.349981 0.794491
v -0.766155 0.014807 -0.464924
v -0.890070 0.030338 0.140352
v 0.294942 0.100858 -0.806469
v -0.315518 0.067734 -0.884562
v 1.027046 0.352720 0.026497
v 0.686524 0.104020 -0.483800
v 0.426100 0.228227 0.667304
v 0.941921 0.358274 0.382855
v -0.639936 0.108395 0.700093
v -0.016381 0.142161 0.851256
v -0.564599 0.574351 -0.633026
v 0.287196 0.722552 -0.607645
v 0.489062 0.507596 0.094643
v 0.030783 0.803833 0.631685
v -0.765099 0.599481 0.346340
v 0.050761 1.194086 -0.918139
v -0.563947 0.935693 -0.131635
v 0.084263 0.644389 -0.364121
v -0.056946 0.669652 0.241440
v -0.243431 1.232816 0.764981
vt 0.4995 0.0451
vt 0.7681 0.0992
vt 0.6054 0.2050
vt 0.8194 0.2940
vt 0.9350 0.2338
vt 0.4741 0.2428
vt 0.3346 0.1857
vt 0.1100 0.0491
vt 0.8841 0.4417
vt 0.6186 0.3474
vt 0.7172 0.3064
vt 0.6841 0.4711
vt 0.4688 0.3744
vt 0.5561 0.3719
vt 0.5374 0.5199
vt 0.3072 0.3760
vt 0.3964 0.3857
vt 0.3667 0.4634
vt 0.0666 0.2835
vt 0.1935 0.2960
vt 0.1121 0.4790
vt 0.8672 0.5258
vt 0.5907 0.4186
vt 0.4443 0.5241
vt 0.2418 0.5020
vt 0.0504 0.4511
vt 0.8511 0.6338
vt 0.9128 0.9418
vt 0.7568 0.8730
vt 0.5810 0.6148
vt 0.7737 0.6960
vt 0.5880 0.7832
vt 0.4123 0.6171
vt 0.4893 0.6013
vt 0.4767 0.7514
vt 0.1535 0.6448
vt 0.2559 0.7463
vt 0.3351 0.8341
vt 0.9361 0.5927
vt 0.7056 0.9822
vt 0.7609 0.9734
vt 0.3287 0.8365
vt 0.5935 0.8715
vt 0.1017 0.6684
vt 0.4796 0.7500
vt 0.0260 0.6377
vt 0.9664 0.4413
vt 0.0327 0.2064
vt 0.8522 0.0589
vn 0.2542 -0.8884 -0.3823
vn -0.5080 -0.7836 -0.3576
vn 0.4726 -0.8416 -0.2615
vn 0.3276 -0.8273 0.4564
vn 0.0689 -0.8727 0.4835
vn -0.7624 -0.4948 -0.4171
vn 0.4557 -0.2204 -0.8624
vn 0.9585 -0.1126 -0.2619
vn 0.4642 0.1440 0.8739
vn -0.6148 -0.4017 0.6787
vn -0.6356 -0.2829 -0.7183
vn 0.6359 -0.0101 -0.7717
vn 0.9676 0.1056 0.2295
vn 0.3422 0.2019 0.9177
vn -0.8695 -0.2536 0.4239
vn -0.4723 0.0645 -0.8791
vn 0.2488 0.8425 0.4777
vn 0.3101 0.9442 0.1109
vn 0.3293 -0.0818 0.9407
vn -0.8510 0.5250 0.0111
vn -0.2798 0.9367 -0.2104
vn -0.7962 0.5989 0.0862
vn -0.7631 0.2291 0.6043
vn 0.9625 0.2651 0.0577
vn 0.7297 0.5793 -0.3632
vn 0.4912 0.7838 -0.3799
vn 0.9124 0.3584 0.1978
vn 0.2913 0.9562 0.0280
vn 0.3839 0.9212 -0.0641
vn 0.9129 0.3161 0.2584
vn 0.4788 0.6375 0.6036
vn 0.6448 -0.1677 -0.7457
vn -0.3268 0.9435 0.0545
vn -0.7363 0.5494 -0.3950
vn -0.7729 0.5152 -0.3703
vn -0.9780 0.1724 0.1171
vn -0.9144 0.0557 0.4009
vn -0.7611 0.2401 0.6026
vn 0.1626 0.3003 0.9399
vn 0.3223 0.2774 0.9051
vn 0.6383 0.4758 0.6050
vn 0.2531 0.9622 0.1008
vn 0.2824 0.9579 0.0525
vn 0.2631 0.9592 -0.1033
vn 0.8194 0.4608 -0.3409
vn 0.6150 0.2471 -0.7488
vn 0.5114 0.2675 -0.8166
vn -0.4608 0.2025 -0.8641
vn -0.6829 0.0267 -0.7300
vn -0.8517 0.1565 -0.5001
vn -0.2332 -0.0433 0.9715
vn -0.2352 -0.0070 0.9719
vn 0.0251 -0.1256 0.9918
vn 0.2763 0.5800 0.7663
vn 0.4524 0.1339 0.8817
vn 0.7491 -0.0935 0.6558
vn 0.5355 0.5614 -0.6309
vn 0.8040 0.1014 -0.5859
vn 0.7227 -0.0565 -0.6889
vn 0.1306 -0.0767 -0.9885
vn 0.1311 -0.0879 -0.9875
vn -0.3029 -0.4408 -0.8450
vn -0.9785 -0.0553 -0.1989
vn -0.9152 -0.3615 -0.1781
vn -0.8699 -0.4813 0.1079
vn -0.4579 -0.7210 0.5202
vn -0.0018 -0.8113 0.5847
vn 0.1901 -0.5812 0.7912
vn 0.4028 -0.5517 0.7303
vn 0.4681 -0.6148 0.6348
vn 0.6953 -0.4835 0.5317
vn 0.8460 -0.5061 -0.1678
vn 0.6511 -0.6578 -0.3786
vn 0.6366 -0.6290 -0.4463
vn -0.6155 -0.7701 0.1674
vn -0.4491 -0.8908 -0.0691
vn -0.1575 -0.9875 -0.0069
vn 0.4622 -0.6616 -0.5905
vn 0.2377 -0.8387 -0.4899
vn -0.2240 -0.7503 -0.6220
usemtl None
s off
f 1/1/1 14/2/1 13/3/1
f 2/4/2 14/2/2 16/5/2
f 1/1/3 13/3/3 18/6/3
f 1/1/4 18/6/4 20/7/4
f 1/1/5 20/7/5 17/8/5
f 2/4/6 16/5/6 23/9/6
f 3/10/7 15/11/7 25/12/7
f 4/13/8 19/14/8 27/15/8
f 5/16/9 21/17/9 29/18/9
f 6/19/10 22/20/10 31/21/10
f 2/4/11 23/9/11 26/22/11
f 3/10/12 25/12/12 28/23/12
f 4/13/13 27/15/13 30/24/13
f 5/16/14 29/18/14 32/25/14
f 6/19/15 31/21/15 24/26/15
f 7/27/16 33/28/16 38/29/16
f 8/30/17 34/31/17 40/32/17
f 9/33/18 35/34/18 41/35/18
f 10/36/19 36/37/19 42/38/19
f 11/39/20 37/40/20 39/41/20
f 39/41/21 42/42/21 12/43/21
f 39/41/22 37/40/22 42/42/22
f 37/44/23 10/36/23 42/38/23
f 42/42/24 41/45/24 12/43/24
f 42/38/25 36/37/25 41/35/25
f 36/37/26 9/33/26 41/35/26
f 41/45/27 40/32/27 12/43/27
f 41/35/28 35/34/28 40/32/28
f 35/34/29 8/30/29 40/32/29
f 40/32/30 38/29/30 12/43/30
f 40/32/31 34/31/31 38/29/31
f 34/31/32 7/27/32 38/29/32
f 38/29/33 39/41/33 12/43/33
f 38/29/34 33/28/34 39/41/34
f 33/28/35 11/39/35 39/41/35
f 24/26/36 37/44/36 11/46/36
f 24/26/37 31/21/37 37/44/37
f 31/21/38 10/36/38 37/44/38
f 32/25/39 36/37/39 10/36/39
f 32/25/40 29/18/40 36/37/40
f 29/18/41 9/33/41 36/37/41
f 30/24/42 35/34/42 9/33/42
f 30/24/43 27/15/43 35/34/43
f 27/15/44 8/30/44 35/34/44
f 28/23/45 34/31/45 8/30/45
f 28/23/46 25/12/46 34/31/46
f 25/12/47 7/27/47 34/31/47
f 26/22/48 33/28/48 7/27/48
f 26/22/49 23/9/49 33/28/49
f 23/9/50 11/39/50 33/28/50
f 31/21/51 32/25/51 10/36/51
f 31/21/52 22/20/52 32/25/52
f 22/20/53 5/16/53 32/25/53
f 29/18/54 30/24/54 9/33/54
f 29/18/55 21/17/55 30/24/55
f 21/17/56 4/13/56 30/24/56
f 27/15/57 28/23/57 8/30/57
f 27/15/58 19/14/58 28/23/58
f 19/14/59 3/10/59 28/23/59
f 25/12/60 26/22/60 7/27/60
f 25/12/61 15/11/61 26/22/61
f 15/11/62 2/4/62 26/22/62
f 23/9/63 24/47/63 11/39/63
f 23/9/64 16/5/64 24/47/64
f 16/48/65 6/19/65 24/26/65
f 17/8/66 22/20/66 6/19/66
f 17/8/67 20/7/67 22/20/67
f 20/7/68 5/16/68 22/20/68
f 20/7/69 21/17/69 5/16/69
f 20/7/70 18/6/70 21/17/70
f 18/6/71 4/13/71 21/17/71
f 18/6/72 19/14/72 4/13/72
f 18/6/73 13/3/73 19/14/73
f 13/3/74 3/10/74 19/14/74
f 16/48/75 17/8/75 6/19/75
f 16/5/76 14/2/76 17/49/76
f 14/2/77 1/1/77 17/49/77
f 13/3/78 15/11/78 3/10/78
f 13/3/79 14/2/79 15/11/79
f 14/2/80 2/4/80 15/11/80
